<?xml version="1.0" ?><!DOCTYPE svg  PUBLIC '-//W3C//DTD SVG 1.0//EN'  'http://www.w3.org/TR/2001/REC-SVG-20010904/DTD/svg10.dtd'><svg enable-background="new 0 0 512 512" id="Layer_1" version="1.0" viewBox="0 0 512 512" xml:space="preserve" xmlns="http://www.w3.org/2000/svg" xmlns:xlink="http://www.w3.org/1999/xlink"><g><g><g><g><path d="M408.9,193.5c0.1-1.5,3.2-4.1,4.1-5.5c1.6-2.4,2.6-5.5,3.1-8.3c1.3-6.6-0.2-13.4-3.9-18.9c-1.8-2.7-4.2-4.9-6.4-7.1      c-8.6-8.6-17.1-17.1-25.7-25.7C361,109,341.9,89.9,322.8,70.8c-0.5-0.5-1.1-1.1-1.6-1.6c0.4,3,0.8,6.1,1.2,9.1      c11.6-19.4,9.9-43,1.6-63.3c-2.6-6.2-7.8-9.8-14.5-10c-7.1-0.2-10.7,5.5-14.7,10.2c-8.3,9.6-19,16.9-29.4,24      c-35.7,24.1-73.6,45-103.8,76.3c-32.4,33.5-50.2,76.3-51.1,122.9c-0.8,42.6,10.8,86.1,39.1,118.6c7,8,15.2,15.6,24.3,21.2      c8.5,5.2,20,3.9,29.6,3.9c30.1,0,60.2,0,90.3,0c7.6,0,15.2,0,22.8,0c19.5,0,27.5-17.6,36.4-31.8c4.4-7.1,8.4-14.2,10.6-22.4      c3.1-12.1,2-25.3-2.8-36.8c-4.6-11.1-12.6-19.2-20.6-27.7c-23-24.5-46.1-48.9-69.1-73.4c-2.4,4.2-4.9,8.4-7.3,12.5      c11.1,1.5,22.1,2.2,33.3,2.3c9.6,0.1,18.8,2.7,26.9,7.8c15.6,9.6,24.2,31.5,43.4,34c12.9,1.7,23.2-12.6,31.2-20.7      c3.4-3.4,6.9-6.9,10.3-10.3c2.3-2.3,3.9-5.1,4.5-8.3c0.5-2.6,0.3-5.2-0.6-7.7C411.8,197.6,409,195.2,408.9,193.5      c-0.7-9.6-15.8-9.7-15,0c0.2,2,0.4,3.9,1.2,5.7c0.8,1.9,2.8,3.6,3.5,5.4c-0.1-0.4-0.8,0.6-1.2,1c-3.6,3.6-7.3,7.3-10.9,10.9      c-3.8,3.8-7.5,7.5-11.3,11.3c-4.2,4.2-8.5,4.6-13.2,0.4c-6.3-5.5-11.4-12.2-17.3-18.1c-5.5-5.4-11.8-10.2-18.7-13.7      c-18.3-9.2-38.8-5.8-58.4-8.5c-7.1-1-12.9,6.6-7.3,12.5c16.3,17.3,32.6,34.6,48.8,51.9c8.6,9.2,17.3,18.4,25.9,27.6      c10.7,11.3,17.2,25.1,14.5,41c-2.4,14.2-13,27-20.5,39c-5.3,8.5-15.1,7.1-23.6,7.1c-29.7,0-59.5,0-89.2,0c-9,0-18.1,0-27.1,0      c-5.1,0-8.9-2.4-12.8-5.3c-0.3-0.2-1.7-1.3-0.1,0c-0.4-0.3-0.8-0.7-1.2-1c-0.9-0.7-1.8-1.5-2.7-2.2c-2.2-1.9-4.3-3.9-6.4-5.9      c-27.8-27.5-39.5-67.2-40.6-105.9c-0.6-24,3.1-48.2,12.6-70.3c8.2-19.2,20.5-36.3,35-51.3c30.2-31.3,68.8-51.6,104.2-76      c8.2-5.6,16.3-11.7,23.5-18.5c3-2.9,5.8-6,8.3-9.3c0.6-0.8,1-1.4,1.1-1.2c1.4,1.3,2.2,5.9,2.8,7.8c4.6,14.3,4.3,30.2-3.3,42.9      c-1.7,2.9-1.2,6.7,1.2,9.1c16.2,16.2,32.3,32.3,48.5,48.5c10.1,10.1,20.3,20.3,30.4,30.4c5.5,5.5,16.8,13.7,10,22.5      c-3.2,4-5.2,6.9-5.6,12.2C393.1,203.2,408.1,203.1,408.9,193.5z"/></g></g></g><g><g><path d="M395.9,432.4c-9.3-7.8-18.7-15.5-28-23.3c-6.8-5.7-13.3-13.1-22.8-13.1c-22.1,0-44.2,0-66.3,0c-31.2,0-62.4,0-93.5,0     c-9,0-18.1,0-27.1,0c-2.2,0-4.6-0.2-6.7,0.4c-5.2,1.4-9.2,5.6-13.3,9c-10.5,8.8-21,17.5-31.6,26.3     c-12.7,10.6-11.1,25.6-11.1,40.3c0,12.2-3.6,35.1,15,35.1c4.3,0,8.6,0,12.9,0c56.9,0,113.7,0,170.6,0c26,0,52.1,0,78.1,0     c5.9,0,11.8,0,17.7,0c4.7,0,8.9-1.4,12.3-4.8c4.9-4.9,3.9-12.6,3.9-18.9C406.1,466.5,409.8,444.8,395.9,432.4     c-7.2-6.4-17.8,4.1-10.6,10.6c5.8,5.2,5.8,11.1,5.8,18.1c0,7.7,0,15.3,0,23c0,1,0,7.9,0,7.9c-1.3,0-2.6,0-3.9,0     c-19.8,0-39.6,0-59.5,0c-61,0-122,0-183.1,0c-8.8,0-17.6,0-26.4,0c-2.2,0-4.3,0-6.5,0c-1.3,0-1.2,0.4-1.2-0.7     c0-12.2,0-24.3,0-36.5c0-6.6,4.1-10.5,8.7-14.3c5.4-4.5,10.8-9,16.2-13.5c5.5-4.6,11-9.2,16.5-13.7c1.1-0.9,2.2-1.8,3.3-2.8     c-0.6,0.5-0.6,0.4,0.2,0.4c6.9,0,13.8,0,20.7,0c30,0,60,0,90.1,0c25.1,0,50.2,0,75.2,0c1.8,0,3.5,0,5.3,0c-0.1,0-0.7-0.7,0.5,0.3     c1.9,1.6,3.7,3.1,5.6,4.7c10.5,8.8,21.1,17.5,31.6,26.3c0.3,0.3,0.6,0.5,0.9,0.8C392.7,449.1,403.3,438.6,395.9,432.4z"/></g></g><g><g><path d="M95.5,454.7c0,12,0,23.9,0,35.9c0,8.6,5.6,16.4,14.9,16.4c1.2,0,2.3,0,3.5,0c19.4,0,38.9,0,58.3,0     c61.1,0,122.2,0,183.4,0c11.7,0,23.5,0,35.2,0c6.3,0,12.8-4,14.5-10.3c1.2-4.5,0.7-9.6,0.7-14.3c0-6.6,0-13.1,0-19.7     c0-5.8,0.2-11.3-1.5-16.9c-1-3.2-3.8-5.5-7.2-5.5c-42.2,0-84.4,0-126.6,0c-53.2,0-106.4,0-159.6,0c-2.3,0-4.6,0-6.8,0     c-3.4,0-6.3,2.3-7.2,5.5C96.1,448.7,95.7,451.7,95.5,454.7c-0.5,9.7,14.5,9.6,15,0c0.1-1.8,0.5-3.3,1-4.9     c-2.4,1.8-4.8,3.7-7.2,5.5c42.2,0,84.4,0,126.6,0c53.2,0,106.4,0,159.6,0c2.3,0,4.6,0,6.8,0c-2.4-1.8-4.8-3.7-7.2-5.5     c1.7,5.5,1,11.6,1,17.3c0,7.3,0,14.6,0,21.9c0,1.6,0.7,2.9-0.6,2.9c-1.8,0-3.6,0-5.4,0c-21.2,0-42.3,0-63.5,0     c-60.5,0-121.1,0-181.6,0c-9.6,0-19.2,0-28.8,0c-0.6,0-0.7,0.1-0.7,0c0-3.5,0-7,0-10.5c0-8.9,0-17.9,0-26.8     C110.5,445.1,95.5,445.1,95.5,454.7z"/></g></g><g><g><path d="M325.4,403.5c0-9.6,0-19.3,0-28.9c0-4.1-3.4-7.5-7.5-7.5c-41.3,0-82.5,0-123.8,0c-4.1,0-7.5,3.4-7.5,7.5     c0,9.6,0,19.3,0,28.9c0,9.7,15,9.7,15,0c0-9.6,0-19.3,0-28.9c-2.5,2.5-5,5-7.5,7.5c41.3,0,82.5,0,123.8,0c-2.5-2.5-5-5-7.5-7.5     c0,9.6,0,19.3,0,28.9C310.4,413.1,325.4,413.1,325.4,403.5L325.4,403.5z"/></g></g></g></svg>